<?xml version="1.0" encoding="UTF-8"?>
<svg id="_图层_2" data-name="图层 2" xmlns="http://www.w3.org/2000/svg" viewBox="0 0 261.84 292.72">
  <defs>
    <style>
      .cls-1 {
        fill: #fff;
      }

      .cls-1, .cls-2, .cls-3 {
        stroke-width: 0px;
      }

      .cls-2 {
        fill-rule: evenodd;
      }

      .cls-2, .cls-3 {
        fill: #b99b64;
      }
    </style>
  </defs>
  <g id="_图层_1-2" data-name="图层 1">
    <g>
      <path class="cls-3" d="m207.94,281.45l-53-122.42c-6.41,3.92-13.3,7.4-20.62,10.36l52.56,121.4c.71,1.63,2.61,2.38,4.24,1.65l15.19-6.8c1.6-.72,2.32-2.58,1.63-4.19Z"/>
      <path class="cls-1" d="m234.97,186.14c-50.41,64.36-160.28,92.59-176.46,39.1-3.9-12.87-2.75-29.23,4.3-45.86,8.81,1.23,18.51,1.43,29.08.37,29.14-2.91,54.38-13.29,73.93-28.11,32.56-23.09,33.19-53.75-2.52-53.02-18.18.37-36.05,5.84-50.93,12.85-21.75,10.24-39.69,25.67-53.04,41.74-11.39-2.69-20.34-7.24-27.11-13.57-11.91-11.14-15.24-35.68,3.53-59.5,23.73-30.12,69.52-47.36,111.35-52.85-2.51-9.04-7.78-16.26-10.85-18.02C61.29,17.66-5.71,74.92.39,124.07c2.63,21.26,17.62,41.36,43.79,50.78-1.66,2.89-3.18,5.73-4.49,8.5-16.4,34.37-9.32,64.35,4.44,79.49,36.41,40.01,115.39,19.64,142.71,6.1,34.24-16.96,62.29-40.11,75-61.72-.42-7.49-15.43-19.13-26.88-21.08Zm-128.42-56.97c26.06-17.13,48.16-18.34,54.57-14.81,10.56,9.15-24.57,39.96-66.62,41.59-6.26.24-12.07.16-17.49-.2,7.59-9.51,17.37-18.59,29.54-26.59Z"/>
      <path class="cls-2" d="m86.92,1.93c-.71-1.63-2.62-2.38-4.24-1.65l-15.19,6.8c-1.6.72-2.32,2.58-1.63,4.19l59.83,138.19c7.8-2.95,14.77-6.65,20.53-10.58L86.92,1.93Z"/>
    </g>
  </g>
</svg>